<svg width="64" height="64" viewBox="0 0 64 64" xmlns="http://www.w3.org/2000/svg">
  <defs>
    <linearGradient id="azureGradient" x1="14%" y1="12%" x2="90%" y2="88%" gradientUnits="userSpaceOnUse">
      <stop offset="0%" stop-color="#50E6FF"/>
      <stop offset="100%" stop-color="#0078D4"/>
    </linearGradient>
  </defs>
  <g fill="none" fill-rule="evenodd">
    <path d="M5 50.5L26.2 6.5a3 3 0 0 1 5.6 0l7.7 16.3a3 3 0 0 1-2.7 4.3H27L14.9 50.5a3 3 0 0 1-2.7 1.7H6.8A1.8 1.8 0 0 1 5 50.5z" fill="url(#azureGradient)"/>
    <path d="M59.1 51l-16-32.7a3 3 0 0 0-2.7-1.7h-8.1l18.4 39.7a2 2 0 0 0 1.8 1.2h5.4a1.6 1.6 0 0 0 1.2-2.5z" fill="#106EBE"/>
  </g>
</svg>
